PathFileType	3	(X/Y/Z)	D:\Jess\Healthy\Labelled\HA12\20250414\SRRun02.trc
DataRate	CameraRate	NumFrames	NumMarkers	Units	OrigDataRate	OrigDataStartFrame	OrigNumFrames
250.0	250.0	4	37	mm	250.0	35937	2501
Frame#	Time	C7			T10			CLAV			LSHO			RSHO			LASIS			RASIS			LPSIS			RPSIS			LILCR			RILCR			LGTR			LTHI			LLTHI			LLEP			LMEP			LPSH			LLSH			LDSH			LLMAL			LMMAL			LTOE			L5TH			LHEE			RGTR			RTHI			RLTHI			RLEP			RMEP			RPSH			RLSH			RDSH			RLMAL			RMMAL			RTOE			R5TH			RHEE			
		X1	Y1	Z1	X2	Y2	Z2	X3	Y3	Z3	X4	Y4	Z4	X5	Y5	Z5	X6	Y6	Z6	X7	Y7	Z7	X8	Y8	Z8	X9	Y9	Z9	X10	Y10	Z10	X11	Y11	Z11	X12	Y12	Z12	X13	Y13	Z13	X14	Y14	Z14	X15	Y15	Z15	X16	Y16	Z16	X17	Y17	Z17	X18	Y18	Z18	X19	Y19	Z19	X20	Y20	Z20	X21	Y21	Z21	X22	Y22	Z22	X23	Y23	Z23	X24	Y24	Z24	X25	Y25	Z25	X26	Y26	Z26	X27	Y27	Z27	X28	Y28	Z28	X29	Y29	Z29	X30	Y30	Z30	X31	Y31	Z31	X32	Y32	Z32	X33	Y33	Z33	X34	Y34	Z34	X35	Y35	Z35	X36	Y36	Z36	X37	Y37	Z37	

938	143.744	1209.149620194277	1508.48771766318	-355.6104160304902	1103.342192862466	1234.422770062959	-372.1420764231405	1337.29366349033	1376.579374681084	-326.4068971059885	1300.210426349306	1449.282601204748	-498.3020805322864	1247.70487939028	1450.12852596866	-188.3515311590976	1266.552080370178	956.4133556088472	-460.3499914885784	1263.861893642807	977.7586361425599	-224.2583320911892	1069.348211999936	1060.944537537856	-367.6384992971124	1069.601242409784	1060.472981461992	-329.0707854285803	1233.135622088949	1022.037641807703	-513.0003442683402	1189.984661116813	1048.227354354685	-164.1500610474544	1179.279840832364	834.2381964128974	-520.4873049247303	1207.855162638192	701.3387336691585	-440.1935865685448	1101.604913308039	668.9759574750718	-504.7604246922452	1047.632271201847	542.6118203751729	-485.4612551854108	nan	nan	nan	1027.785576073143	424.3408017170599	-433.4462528014188	904.966443475529	372.51431438659	-487.1428426930964	891.7780212523609	245.569809176177	-420.3569704229597	795.912597819251	197.1424134806624	-441.531352805604	nan	nan	nan	880.9563785109202	60.19582273272422	-405.536060916398	842.6372937877937	59.61980245802495	-443.305948389065	721.5402310553902	218.0979171331304	-394.0352078047125	1212.175208102468	882.25108826461	-153.0501057786743	1347.867532723227	796.7915634068951	-271.0949215818943	1286.794108634838	679.9366518485858	-183.4302976403447	1305.373872957014	549.7152426316653	-198.8460617427974	nan	nan	nan	1333.969277351114	440.1713828720402	-255.6201572067049	1249.533099618619	373.1333077704129	-190.207359698377	1258.385425921234	229.3394475159336	-272.9643847868381	1186.955952672246	167.4392443237862	-239.0115670177731	nan	nan	nan	1332.188584618873	95.51230517072354	-236.4026237783555	1291.796005538012	62.83272037811545	-200.7771173303072	1112.551971146666	136.8743059238371	-299.3775087529146	
939	143.748	1209.650956886433	1509.87329072027	-355.1166662986578	1103.913772407657	1236.229323925871	-372.14049560641	1337.613894668192	1378.465922041185	-325.7130432347438	1300.725977129081	1451.320938589231	-497.2836792745987	1247.874950815485	1451.716768280879	-187.9055357029554	1267.159843109768	958.4360184401339	-459.3278221945813	1264.083624777776	980.3782603402502	-223.7665606160688	1070.020335545383	1062.890898741329	-367.6841204198974	1070.239619631877	1062.528093366544	-329.1278069291731	1234.526016122142	1024.20721471398	-511.9964459387471	1190.144760653677	1051.086649730708	-164.0887617712202	1178.590823930537	836.0248754061191	-520.3947744824712	1205.966765073203	702.577900894869	-440.7577483614954	1099.173768445778	671.5845963560389	-505.0210726558819	1044.151738680779	545.4786429299348	-485.8435073958866	nan	nan	nan	1023.568744623206	426.9988328431544	-434.3348494782526	900.2648837393169	376.1734413552437	-487.99658714541	886.685304345704	248.8043637314535	-421.7709398111093	790.6900341686933	201.1169029196667	-443.056955164424	nan	nan	nan	871.8424723357804	61.5183852356931	-406.2141201276282	833.6007995677484	61.46380527815466	-444.093712431128	717.1014833469707	224.4204647065402	-395.9867803977123	1211.929234055793	884.8697527032784	-152.7413147846076	1348.088301596026	799.077539837127	-269.9674766779327	1285.009651868928	681.325542463058	-183.9985394901512	1303.692409320879	550.4221885696429	-198.8048959180764	nan	nan	nan	1335.910950804975	441.4282154645923	-255.3308560318646	1253.661648625268	371.4834718170622	-190.3416789712509	1268.597758205836	227.8630973422344	-273.2787388143024	1199.577771845377	163.1772043743785	-239.7688705349464	nan	nan	nan	1347.563185634483	97.06794862219043	-236.7515268217146	1308.369057168232	62.74695548853412	-201.3663817970241	1126.755846393171	129.8534631202088	-300.4561887238648	
940	143.752	1210.168187154724	1511.102188545086	-354.6001089216635	1104.449348541899	1237.904429271592	-372.0869861690613	1337.951663153199	1380.174872762357	-325.026570944152	1301.211112648899	1453.175748663268	-496.2648229130539	1248.118309931707	1453.120904511428	-187.4295542922433	1267.704654097464	960.3672490794025	-458.3834669545372	1264.300335489065	982.8036844530584	-223.3524717052835	1070.646602312202	1064.68945795547	-367.7122426545573	1070.850416099762	1064.407021980177	-329.1706618565294	1235.781501943084	1026.295157246939	-511.059955427196	1190.307114933306	1053.74249015482	-164.0726032067975	1177.877814400069	837.7525339698761	-520.348580740132	1204.245135392003	703.7485360769714	-441.3116030034889	1096.991802639457	674.0159432459826	-505.2339944975359	1041.087694685475	548.1017021584236	-486.1377250122147	nan	nan	nan	1019.682242433778	429.4550817400043	-435.0691900081713	895.9348844071843	379.6464687022604	-488.8171614074377	881.7481657162227	251.9601993178386	-423.0822875963882	785.607206029361	205.1184261424067	-444.53513500515	nan	nan	nan	862.7610082261607	63.02732111645182	-406.9377065832895	824.579934897631	63.50273130398595	-444.8850733320217	712.8945840723613	230.763954452133	-397.8676009712617	1211.666754515767	887.2461959197024	-152.4946877887661	1348.221563217058	800.9980688409748	-268.7404262701104	1282.828149051736	682.4259539421213	-184.5504843952398	1301.889216827014	550.9089957060191	-198.7525516184118	nan	nan	nan	1337.749525191556	442.6264053372514	-255.0713926493267	1257.803387475967	369.9077733854548	-190.4462811735185	1278.664251603425	226.6906675469365	-273.5812463736256	1212.160879371492	159.3468661945828	-240.4478470450055	nan	nan	nan	1362.652181671378	99.07864165755309	-237.1739794845185	1324.743928538717	63.18310005567199	-201.9874507226438	1140.963194366667	123.3429971816874	-301.3778804096931	
941	143.756	1210.700910161658	1512.172421834728	-354.0573195416981	1104.945000500102	1239.443931933899	-371.9830515504265	1338.307356119926	1381.697832551791	-324.3465336971265	1301.669735704985	1454.839116242042	-495.2492700773135	1248.433797516576	1454.332288392426	-186.9211570419372	1268.182297636019	962.1998168718615	-457.5288175689781	1264.510407140199	985.0194420897208	-223.0211085001101	1071.223440805129	1066.335116144967	-367.718603595532	1071.428725847714	1066.103679250496	-329.1945645940671	1236.894272664025	1028.295186766439	-510.197774893912	1190.47738630684	1056.180377196756	-164.098853796119	1177.156345533895	839.4164625349001	-520.3426839490753	1202.701252151965	704.8454683559486	-441.8314319657005	1095.080090119411	676.247232660093	-505.396993407907	1038.455317336401	550.4584430376912	-486.3427070578633	nan	nan	nan	1016.12949487303	431.6916530678519	-435.6484583364789	891.9768550215981	382.9259185245199	-489.6027074781005	876.9600685128305	255.0347921165155	-424.2895768092671	780.6487576229414	209.1523724748803	-445.9528623368275	nan	nan	nan	853.7030866317647	64.72641057653735	-407.7168618638432	815.5578274958115	65.74842318740139	-445.6791846458955	708.9156281949093	237.1232408248201	-399.6436597618343	1211.386270912188	889.3586352868962	-152.3066956162131	1348.252224189194	802.523928876103	-267.4205719672951	1280.271843261839	683.2345748642442	-185.0621237628487	1299.992278302068	551.184878342962	-198.6906385443969	nan	nan	nan	1339.494020312652	443.775601178618	-254.8554050077548	1261.959552814829	368.4209908811076	-190.5247390792141	1288.547285063811	225.8254161118225	-273.8777093891908	1224.649274557218	155.9618138235577	-241.0496744849032	nan	nan	nan	1377.398974171359	101.5253991103871	-237.678562482474	1340.857907441579	64.12654028459008	-202.648835224908	1155.102299594626	117.3544167971221	-302.1410288289543	
